<svg width="62" height="62" viewBox="0 0 62 62" fill="none" xmlns="http://www.w3.org/2000/svg">
<path d="M7.75 31H31V34.875H7.75V31ZM3.875 21.3125H23.25V25.1875H3.875V21.3125Z" fill="black"/>
<path d="M57.968 32.1741L52.1555 18.6116C52.0062 18.2632 51.7579 17.9662 51.4414 17.7575C51.1249 17.5488 50.7541 17.4375 50.375 17.4375H44.5625V13.5625C44.5625 13.0486 44.3583 12.5558 43.995 12.1925C43.6316 11.8291 43.1388 11.625 42.625 11.625H11.625V15.5H40.6875V39.8272C39.8052 40.3406 39.0329 41.0231 38.4152 41.8358C37.7974 42.6484 37.3462 43.575 37.0876 44.5625H24.9124C24.4408 42.7361 23.3193 41.1444 21.7581 40.0857C20.1969 39.027 18.3032 38.5741 16.4319 38.8118C14.5606 39.0495 12.8403 39.9614 11.5934 41.3768C10.3464 42.7922 9.65845 44.6137 9.65845 46.5C9.65845 48.3863 10.3464 50.2078 11.5934 51.6232C12.8403 53.0386 14.5606 53.9505 16.4319 54.1882C18.3032 54.4259 20.1969 53.973 21.7581 52.9143C23.3193 51.8556 24.4408 50.2639 24.9124 48.4375H37.0876C37.5091 50.1003 38.473 51.5752 39.8268 52.6286C41.1806 53.6821 42.8471 54.2541 44.5625 54.2541C46.2779 54.2541 47.9443 53.6821 49.2982 52.6286C50.652 51.5752 51.6159 50.1003 52.0373 48.4375H56.1875C56.7013 48.4375 57.1941 48.2334 57.5575 47.87C57.9208 47.5067 58.125 47.0139 58.125 46.5V32.9375C58.1249 32.675 58.0715 32.4153 57.968 32.1741ZM17.4375 50.375C16.6711 50.375 15.9219 50.1477 15.2846 49.7219C14.6474 49.2962 14.1507 48.691 13.8574 47.9829C13.5642 47.2748 13.4874 46.4957 13.6369 45.744C13.7865 44.9923 14.1555 44.3019 14.6974 43.76C15.2394 43.218 15.9298 42.849 16.6815 42.6995C17.4332 42.5499 18.2123 42.6267 18.9204 42.92C19.6284 43.2133 20.2336 43.7099 20.6594 44.3472C21.0852 44.9844 21.3125 45.7336 21.3125 46.5C21.3125 47.5277 20.9042 48.5133 20.1775 49.24C19.4508 49.9667 18.4652 50.375 17.4375 50.375ZM44.5625 21.3125H49.0962L53.2502 31H44.5625V21.3125ZM44.5625 50.375C43.7961 50.375 43.0469 50.1477 42.4096 49.7219C41.7724 49.2962 41.2757 48.691 40.9824 47.9829C40.6892 47.2748 40.6124 46.4957 40.7619 45.744C40.9115 44.9923 41.2805 44.3019 41.8224 43.76C42.3644 43.218 43.0548 42.849 43.8065 42.6995C44.5582 42.5499 45.3373 42.6267 46.0454 42.92C46.7534 43.2133 47.3586 43.7099 47.7844 44.3472C48.2102 44.9844 48.4375 45.7336 48.4375 46.5C48.4375 47.5277 48.0292 48.5133 47.3025 49.24C46.5758 49.9667 45.5902 50.375 44.5625 50.375ZM54.25 44.5625H52.0373C51.6106 42.9029 50.6451 41.4318 49.2924 40.3799C47.9396 39.328 46.2761 38.7548 44.5625 38.75V34.875H54.25V44.5625Z" fill="black"/>
</svg>
