<svg width="62" height="69" viewBox="0 0 62 69" fill="none" xmlns="http://www.w3.org/2000/svg">
<path d="M31.0011 0.000147645C28.526 0.000147645 26.2145 1.1281 24.2441 2.97514C22.2741 4.82262 20.5875 7.39553 19.1816 10.5121C18.8869 11.165 18.6055 11.8435 18.3365 12.5434C17.6111 12.4282 16.8825 12.3335 16.1517 12.2594C15.3016 12.1747 14.4722 12.122 13.6663 12.1031C11.2472 12.0456 9.03631 12.2911 7.09854 12.879C4.51504 13.663 2.38323 15.1029 1.1457 17.2478C-0.0918343 19.3931 -0.271572 21.9607 0.341745 24.592C0.955355 27.2232 2.3383 29.9714 4.33235 32.7484C4.75076 33.3308 5.19774 33.9149 5.66948 34.499C5.20798 35.0692 4.76268 35.6523 4.33412 36.2477C2.33992 39.0245 0.956976 41.7727 0.343513 44.404C-0.269951 47.0353 -0.0900663 49.6029 1.14747 51.7478C2.385 53.8931 4.5168 55.3329 7.1003 56.1166C9.68395 56.9007 12.7536 57.076 16.1535 56.7361C16.8662 56.6648 17.5943 56.5695 18.3351 56.4528C18.598 57.139 18.8803 57.8176 19.1816 58.4878C20.5875 61.6048 22.274 64.1772 24.2441 66.0246C26.2143 67.8719 28.5261 69 31.0011 69C33.476 69 35.7877 67.8718 37.7579 66.0246C39.7279 64.1771 41.4145 61.6046 42.8204 58.4878C43.1217 57.8177 43.404 57.1391 43.6669 56.453C44.4068 56.5695 45.1343 56.6649 45.8465 56.7361C49.2465 57.0759 52.3163 56.9005 54.8996 56.1166C57.4834 55.3328 59.6152 53.8928 60.8528 51.7478C62.0903 49.6025 62.27 47.0352 61.6567 44.404C61.0431 41.7729 59.66 39.0246 57.6661 36.2477C57.2374 35.6524 56.792 35.0692 56.3306 34.499C56.7928 33.9283 57.2387 33.3446 57.6677 32.7485C59.6618 29.9715 61.0447 27.2233 61.6582 24.5922C62.2717 21.9609 62.0918 19.3933 60.8542 17.2479C59.6167 15.1031 57.4849 13.6631 54.9014 12.8791C52.9638 12.2913 50.7527 12.0458 48.3339 12.1031C47.5275 12.122 46.6979 12.1747 45.8479 12.2594C45.1349 12.3308 44.4061 12.4265 43.665 12.5433C43.4024 11.8584 43.1206 11.1811 42.8198 10.5121C41.4139 7.39509 39.7275 4.82218 37.7573 2.97499C35.7871 1.1278 33.4753 0 31.0005 0L31.0011 0.000147645ZM31.0011 2.75545C32.6519 2.75545 34.2705 3.48132 35.8755 4.98629C37.4803 6.49096 39.0131 8.76869 40.311 11.6459C40.5221 12.1154 40.7228 12.5894 40.913 13.0677C37.7577 13.7699 34.4159 14.8471 31.0002 16.2865C27.5852 14.8474 24.2438 13.7705 21.0892 13.0683C21.2839 12.5803 21.484 12.1046 21.6911 11.6458C22.9891 8.76839 24.5218 6.49066 26.1268 4.9857C27.7318 3.48102 29.3503 2.75515 31.0014 2.75515L31.0011 2.75545ZM12.7931 14.8543C13.0589 14.8517 13.3289 14.8534 13.6031 14.8596C14.3338 14.8758 15.0936 14.923 15.8783 15.0016C16.38 15.0517 16.8929 15.1159 17.414 15.1915C16.4437 18.2771 15.705 21.7118 15.2421 25.3918C12.2885 27.6329 9.68528 29.9911 7.50014 32.3752C7.18036 31.9704 6.86957 31.5585 6.56802 31.1399C4.72718 28.5764 3.5228 26.1091 3.02292 23.9655C2.52305 21.822 2.7047 20.0563 3.53002 18.6255C4.35533 17.1947 5.79294 16.1548 7.89733 15.5162C9.27851 15.097 10.9322 14.8711 12.793 14.8542L12.7931 14.8543ZM49.2073 14.8543C51.068 14.8713 52.7217 15.0972 54.1029 15.5163C56.2076 16.1548 57.6446 17.1947 58.4701 18.6255C59.2954 20.0563 59.477 21.8221 58.9773 23.9655C58.4779 26.1089 57.2728 28.5764 55.4322 31.1399C55.1307 31.5586 54.82 31.9705 54.5004 32.3755C52.3155 29.9917 49.713 27.6341 46.7603 25.3932C46.2977 21.7127 45.5582 18.2775 44.5879 15.1915C45.1084 15.1159 45.6206 15.0515 46.122 15.0016C46.8783 14.9249 47.6373 14.8775 48.3973 14.8595C48.6672 14.8533 48.9373 14.8515 49.2073 14.854V14.8543ZM41.8528 15.6859C42.585 17.9622 43.1912 20.4737 43.6437 23.1614C42.182 22.1732 40.6859 21.2371 39.1582 20.3547C37.6317 19.4722 36.0744 18.6438 34.4894 17.8713C37.0411 16.9196 39.5172 16.1894 41.8528 15.6862V15.6859ZM20.1492 15.6863C22.4843 16.1897 24.9601 16.9199 27.5111 17.8715C25.9261 18.6441 24.3689 19.4723 22.8423 20.3547C21.3153 21.2367 19.8198 22.1723 18.3586 23.1597C18.8109 20.4728 19.417 17.962 20.1492 15.6863ZM31.0002 19.2928C33.2406 20.2819 35.5147 21.4314 37.7816 22.7413C40.0494 24.0518 42.1822 25.4484 44.1586 26.8963C44.4232 29.3331 44.5655 31.8796 44.5655 34.5C44.5655 37.1189 44.4236 39.6644 44.1592 42.1002C42.1828 43.5478 40.0502 44.9441 37.7832 46.2543C35.5159 47.5643 33.2412 48.7143 31.0003 49.7033C28.7592 48.7143 26.4845 47.5643 24.2172 46.2543C21.9506 44.9445 19.8189 43.5487 17.8433 42.1017C17.5788 39.6654 17.4367 37.1195 17.4367 34.4999C17.4367 31.879 17.5788 29.3322 17.8436 26.8951C19.8197 25.4476 21.9517 24.0512 24.2188 22.7413C26.4858 21.4315 28.76 20.2819 31.0002 19.2931V19.2928ZM31.1864 23.4384L23.3042 28.3066L31.1864 33.1752L39.0686 28.3066L31.1864 23.4383V23.4384ZM14.8686 29.2085C14.7447 30.9695 14.683 32.7342 14.6834 34.4996C14.6834 36.2981 14.7468 38.0636 14.8688 39.7875C12.7694 38.0521 10.8994 36.271 9.2959 34.4982C10.8994 32.7257 12.7692 30.9442 14.8686 29.2085ZM47.1337 29.21C49.232 30.9454 51.1016 32.7261 52.7045 34.4984C51.1016 36.2707 49.232 38.0514 47.1337 39.7863C47.2574 38.0268 47.3191 36.2635 47.3187 34.4997C47.3187 32.7003 47.2554 30.9345 47.1335 29.21H47.1337ZM21.5285 30.4476V40.0607L29.8067 45.1737V35.561L21.5285 30.4476ZM40.8367 30.4526L32.5604 35.5646V45.1726L40.8368 40.0607L40.8367 30.4526ZM7.49985 36.6217C9.68528 39.0059 12.2882 41.3636 15.2415 43.6047C15.7041 47.2842 16.4431 50.7186 17.4131 53.8042C16.893 53.8794 16.3809 53.9438 15.88 53.994C12.7414 54.3076 10.0036 54.1178 7.8991 53.4794C5.79441 52.8409 4.3574 51.8006 3.53193 50.3698C2.70661 48.9388 2.52496 47.1732 3.02469 45.0298C3.52442 42.8864 4.72895 40.4189 6.56978 37.8554C6.87069 37.4373 7.18069 37.026 7.49985 36.6217ZM54.5002 36.6222C54.8254 37.035 55.1367 37.4464 55.4303 37.8554C57.271 40.4187 58.4755 42.8862 58.9752 45.0296C59.475 47.173 59.2938 48.9387 58.4684 50.3696C57.6428 51.8004 56.2055 52.8408 54.1008 53.4792C51.9964 54.1177 49.2591 54.3074 46.1205 53.9938C45.6087 53.9419 45.0981 53.8787 44.5891 53.8043C45.5592 50.718 46.298 47.2829 46.7606 43.6026C49.713 41.3621 52.3157 39.005 54.5004 36.6219L54.5002 36.6222ZM43.6443 45.835C43.192 48.5223 42.5859 51.0339 41.8537 53.31C39.518 52.8067 37.0416 52.0761 34.4897 51.1245C36.0751 50.3516 37.6328 49.523 39.16 48.6404C40.6873 47.7583 42.1831 46.8226 43.6446 45.835H43.6443ZM18.358 45.8364C19.8187 46.8236 21.3137 47.7589 22.8403 48.6404C24.3674 49.523 25.9251 50.3516 27.5105 51.1245C24.9594 52.076 22.4837 52.8064 20.1482 53.3097C19.416 51.034 18.8103 48.523 18.358 45.8364ZM31.0825 45.9618L31.1827 46.0237L31.2825 45.9618H31.0827H31.0825ZM31 52.7099C34.4165 54.1489 37.7585 55.226 40.9142 55.928C40.7237 56.4077 40.5226 56.883 40.311 57.3538C39.0131 60.2309 37.4803 62.5084 35.8753 64.0134C34.2705 65.5182 32.6519 66.2443 31.0011 66.2443C29.3503 66.2443 27.7315 65.5182 26.1267 64.0134C24.5218 62.5086 22.9891 60.2309 21.6911 57.3536C21.4796 56.8829 21.2785 56.4075 21.0878 55.9278C24.243 55.2257 27.5846 54.1488 31.0003 52.7099H31Z" fill="black"/>
</svg>
