<svg width="62" height="62" viewBox="0 0 62 62" fill="none" xmlns="http://www.w3.org/2000/svg">
<path d="M31 58.7709C46.3374 58.7709 58.7708 46.3375 58.7708 31.0001C58.7708 15.6627 46.3374 3.22925 31 3.22925C15.6626 3.22925 3.22913 15.6627 3.22913 31.0001C3.22913 46.3375 15.6626 58.7709 31 58.7709Z" stroke="black" stroke-width="2" stroke-linecap="round" stroke-linejoin="round"/>
<path d="M30.2689 32.1226L32.063 42.2957M13.4178 45.6179L11.625 35.4434L14.9265 34.8622C15.8271 34.7186 16.7482 34.9335 17.4923 35.4609C18.2364 35.9882 18.7442 36.7861 18.9071 37.6835C19.0699 38.5808 18.8748 39.5063 18.3635 40.2615C17.8521 41.0166 17.0653 41.5415 16.1717 41.7235L16.1381 41.7287L12.8366 42.3099M22.6068 43.9968L20.8126 33.8237L24.1193 33.2398C25.0222 33.0905 25.9477 33.302 26.6961 33.8288C27.4444 34.3557 27.9557 35.1556 28.1197 36.056C28.2836 36.9564 28.087 37.8852 27.5723 38.6419C27.0575 39.3987 26.266 39.9228 25.3683 40.1012L25.3296 40.1076L22.0229 40.6902M25.5711 40.0573L29.3454 42.8072M51.4393 37.6057C51.1895 38.0622 50.8393 38.4561 50.4151 38.7575C49.9908 39.0589 49.5037 39.26 48.9903 39.3456C48.0849 39.5089 47.1517 39.3059 46.396 38.7812C45.6402 38.2565 45.1238 37.4532 44.9603 36.5478L44.9539 36.5194L44.3713 33.2127C44.2898 32.7617 44.2983 32.299 44.3963 31.8513C44.4943 31.4035 44.68 30.9796 44.9426 30.604C45.2051 30.2283 45.5394 29.9083 45.9262 29.6624C46.313 29.4164 46.7446 29.2495 47.1962 29.1711C47.7084 29.0909 48.2318 29.121 48.7314 29.2593C49.2311 29.3977 49.6954 29.641 50.0934 29.9732M42.8872 33.7371L47.213 32.9751M43.3354 36.2791L47.6612 35.5171M40.9704 37.2221C41.1337 38.1275 40.9307 39.0607 40.406 39.8164C39.8813 40.5721 39.078 41.0886 38.1726 41.2521L38.1429 41.2585C37.2375 41.4218 36.3043 41.2188 35.5486 40.6941C34.7928 40.1695 34.2764 39.3661 34.1129 38.4608L34.1077 38.4323L33.502 34.9965C33.4199 34.5488 33.427 34.0894 33.5227 33.6444C33.6185 33.1995 33.801 32.7778 34.0599 32.4035C34.3188 32.0291 34.649 31.7096 35.0316 31.463C35.4141 31.2164 35.8415 31.0477 36.2894 30.9665L36.3281 30.9588C36.773 30.8805 37.229 30.8927 37.6691 30.9947C38.1091 31.0966 38.5241 31.2861 38.8892 31.5519C39.2544 31.8177 39.5623 32.1544 39.7944 32.5419C40.0266 32.9293 40.1783 33.3595 40.2406 33.8069M37.4609 17.4776L44.2034 16.2893M42.6922 27.045L40.8967 16.8718M16.979 26.394C17.3131 26.3354 17.6555 26.3432 17.9867 26.4169C18.3178 26.4907 18.6312 26.6289 18.909 26.8237C19.1867 27.0186 19.4233 27.2662 19.6053 27.5525C19.7874 27.8388 19.9112 28.1582 19.9698 28.4923C20.0284 28.8265 20.0206 29.1689 19.9469 29.5001C19.8732 29.8312 19.7349 30.1446 19.5401 30.4223C19.3452 30.7001 19.0976 30.9367 18.8113 31.1187C18.525 31.3007 18.2057 31.4246 17.8715 31.4832L13.6813 32.2233L11.8859 22.0488L16.0825 21.3087C16.4199 21.2418 16.7672 21.243 17.1041 21.3121C17.441 21.3813 17.7607 21.5171 18.0444 21.7115C18.3281 21.9059 18.5701 22.155 18.7562 22.4442C18.9423 22.7335 19.0687 23.0569 19.1281 23.3957C19.1875 23.7345 19.1786 24.0817 19.1019 24.4169C19.0253 24.7522 18.8824 25.0688 18.6817 25.3481C18.481 25.6274 18.2266 25.8638 17.9333 26.0434C17.64 26.223 17.3138 26.3422 16.9738 26.394H16.979ZM16.979 26.394L12.7836 27.1341M28.1441 29.5198L23.0588 30.4176L21.2647 20.2444L26.35 19.348M22.1611 25.331L25.4678 24.7471M30.2792 28.0163C30.6474 28.3435 31.0888 28.5774 31.5663 28.6983C32.0437 28.8192 32.5432 28.8237 33.0227 28.7113L34.5469 28.4426C34.8816 28.384 35.2014 28.2599 35.4881 28.0774C35.7748 27.895 36.0226 27.6578 36.2175 27.3795C36.4123 27.1011 36.5503 26.787 36.6236 26.4552C36.6969 26.1235 36.704 25.7805 36.6446 25.4459C36.5854 25.1117 36.4608 24.7924 36.2781 24.5064C36.0955 24.2203 35.8582 23.973 35.5799 23.7787C35.3016 23.5843 34.9877 23.4468 34.6562 23.3738C34.3247 23.3008 33.9821 23.2939 33.6479 23.3534L31.9946 23.6453C31.3205 23.7636 30.627 23.6096 30.0663 23.217C29.5057 22.8245 29.1238 22.2255 29.0044 21.5516C28.9457 21.2173 28.9534 20.8748 29.0271 20.5435C29.1009 20.2122 29.2391 19.8987 29.434 19.6209C29.629 19.3431 29.8767 19.1064 30.1631 18.9244C30.4496 18.7424 30.769 18.6186 31.1033 18.5601L32.6275 18.2914C33.106 18.151 33.6133 18.1415 34.0967 18.2637C34.5801 18.3859 35.0219 18.6354 35.3762 18.9863" stroke="black" stroke-width="2" stroke-linecap="round" stroke-linejoin="round"/>
</svg>
