<svg width="25" height="24" viewBox="0 0 25 24" fill="none" xmlns="http://www.w3.org/2000/svg">
<path d="M21.125 2.625H3.875C3.46016 2.625 3.125 2.96016 3.125 3.375V20.625C3.125 21.0398 3.46016 21.375 3.875 21.375H21.125C21.5398 21.375 21.875 21.0398 21.875 20.625V3.375C21.875 2.96016 21.5398 2.625 21.125 2.625ZM20.375 19.875H16.0602V14.1141H18.4977L18.8633 11.2852H16.0602V9.47812C16.0602 8.65781 16.2875 8.1 17.4617 8.1H18.9594V5.56875C18.6992 5.53359 17.8109 5.45625 16.775 5.45625C14.6141 5.45625 13.1352 6.77578 13.1352 9.19687V11.2828H10.693V14.1117H13.1375V19.875H4.625V4.125H20.375V19.875Z" fill="black"/>
</svg>
