<?xml version="1.0" encoding="utf-8"?>
<!-- Generator: Adobe Illustrator 23.0.2, SVG Export Plug-In . SVG Version: 6.00 Build 0)  -->
<svg version="1.1" id="logo" xmlns="http://www.w3.org/2000/svg" xmlns:xlink="http://www.w3.org/1999/xlink" x="0px" y="0px"
	 viewBox="0 0 162.3 57.7" style="enable-background:new 0 0 162.3 57.7;" xml:space="preserve">
<style type="text/css">
	.st0{fill-rule:evenodd;clip-rule:evenodd;fill:#F00300;}
	.st1{fill:none;stroke:#F10504;stroke-width:2.51;}
	.st2{fill-rule:evenodd;clip-rule:evenodd;fill:#FFFFFF;}
</style>
<path id="logo-2" class="st0" d="M23.3,28.3l5.9,4.9l-19,15.6v-41l19,15.6L23.3,28.3L23.3,28.3z M22.9,20.8l-9.5,7.7l6,4.9l-6.9,5.7
	v5.6l13.8-11.3l-5.9-4.9l5.9-4.9L22.9,20.8z"/>
<path id="stroke" class="st1" d="M11.3,1.3h14.7c5.5,0,10,4.5,10,10v35.2c0,5.5-4.5,10-10,10H11.3c-5.5,0-10-4.5-10-10V11.3
	C1.3,5.7,5.7,1.3,11.3,1.3z"/>
<path id="berserk" class="st2" d="M54.7,19.9c1.1,0,2.1-1,2-2.1c0-1.1-0.9-2-2-2h-6.2v4.2H54.7z M48.5,13H54c1.1,0,2.1-0.9,2.1-2.1
	c0-1.1-0.9-2.1-2.1-2.1c0,0,0,0,0,0h-5.5V13z M57.7,14c2.1,1.7,2.5,4.7,0.8,6.8c-0.9,1.2-2.3,1.8-3.8,1.8h-9V8.8h-1.7L45.2,6H54
	c2.7,0,4.8,2.2,4.9,4.9C58.9,12,58.5,13.1,57.7,14L57.7,14L57.7,14z M76,6l-0.8,2.8h-8.8V13h5.4l-0.8,2.8h-4.6v4.2H76l-0.8,2.8H63.6
	V8.8h-1.7L63.1,6H76L76,6z M82.8,15h4.2c1.7,0,3.1-1.4,3.1-3.1c0-1.7-1.4-3.1-3.1-3.1h-4.2L82.8,15L82.8,15z M80,8.8h-1.7L79.5,6
	h7.4c3.3,0,5.9,2.6,5.9,5.9c0,0,0,0,0,0c0,2.4-1.5,4.6-3.8,5.5l7.7,9.8l-4.6-1.4l-6.4-8.1h-3v4.9H80L80,8.8L80,8.8z M107.6,14.8
	c0.8,0.7,1.3,1.8,1.3,2.9c0.1,1.1-0.3,2.2-1.1,3c-1,1-2.2,1.6-3.6,1.8c-0.9,0.2-1.9,0.2-2.8,0.1c-1.7-0.1-3.3-0.7-4.6-1.7
	c-0.4-0.3-0.8-0.7-1.2-1.2l2.2-1.8c0.3,0.5,0.6,0.8,1.1,1.1c0.9,0.5,1.8,0.8,2.8,0.9c1.9,0.2,3.2-0.2,4-1c0.3-0.3,0.4-0.6,0.4-1
	c0-0.4-0.1-0.7-0.4-1c-1.1-0.7-2.3-1.1-3.6-1.1c-1.4-0.1-2.8-0.4-4.1-1.1c-1.7-0.7-2.7-2.4-2.6-4.2c0.1-1.1,0.7-2.2,1.6-2.9
	c0.9-0.7,1.9-1.1,3-1.3c1-0.2,2-0.3,3-0.2c1.7,0.1,3.3,0.7,4.6,1.7c0.2,0.2,0.4,0.3,0.6,0.5l-2,2c0,0-0.1-0.1-0.1-0.1
	c-0.5-0.5-1.2-0.8-1.8-1c-1.5-0.5-3.1-0.5-4.5,0c-0.4,0.1-0.7,0.3-1,0.6c-0.3,0.2-0.5,0.6-0.5,1c0,0.4,0.2,0.8,0.5,1.1
	c0.3,0.3,0.7,0.5,1.1,0.6c1,0.3,2.1,0.5,3.2,0.6C104.7,13.2,106.3,13.8,107.6,14.8L107.6,14.8L107.6,14.8z M125.4,6l-0.8,2.8h-8.8
	V13h5.4l-0.8,2.8h-4.6v4.2h9.6l-0.8,2.8H113V8.8h-1.7l1.2-2.8L125.4,6L125.4,6z M132.1,15h4.2c1.7,0,3.1-1.4,3.1-3.1
	c0-1.7-1.4-3.1-3.1-3.1h-4.2V15z M129.4,8.8h-1.7l1.2-2.8h7.4c3.3,0,5.9,2.6,5.9,5.9c0,0,0,0,0,0c0,2.4-1.5,4.6-3.8,5.5l7.7,9.8
	l-4.6-1.4l-6.4-8.1h-3v4.9h-2.8L129.4,8.8L129.4,8.8z M159,6l-7.2,7.8l10.4,13.3l-4.6-1.4l-7.7-9.9L148,18v4.6h-2.8V6h2.8v7.9
	l7.2-7.9L159,6L159,6z"/>
<path id="Sport" class="st2" d="M57.2,41.8c0.8,0.7,1.3,1.8,1.3,2.9c0.1,1.1-0.3,2.2-1.1,3c-1,1-2.2,1.6-3.6,1.8
	c-0.9,0.2-1.9,0.2-2.8,0.1c-1.7-0.1-3.3-0.7-4.6-1.7c-0.4-0.3-0.8-0.7-1.2-1.2l2.2-1.8c0.3,0.5,0.6,0.8,1.1,1.1
	c0.9,0.5,1.8,0.8,2.8,0.9c1.9,0.2,3.2-0.2,4-1c0.3-0.3,0.4-0.6,0.4-1c0-0.4-0.1-0.7-0.4-1c-1.1-0.7-2.3-1.1-3.6-1.1
	c-1.4-0.1-2.8-0.4-4.1-1.1c-1.7-0.7-2.7-2.4-2.6-4.2c0.1-1.1,0.7-2.2,1.6-2.9c0.9-0.7,1.9-1.1,3-1.3c1-0.2,2-0.3,3-0.2
	c1.7,0.1,3.3,0.7,4.6,1.7c0.2,0.2,0.4,0.3,0.6,0.5l-2,2c0,0-0.1-0.1-0.1-0.1c-0.5-0.5-1.2-0.8-1.8-1c-1.5-0.5-3.1-0.5-4.5,0
	c-0.4,0.1-0.7,0.3-1,0.6c-0.3,0.2-0.5,0.6-0.5,1c0,0.4,0.2,0.8,0.5,1.1c0.3,0.3,0.7,0.5,1.1,0.6c1,0.3,2.1,0.5,3.2,0.6
	C54.3,40.2,55.9,40.8,57.2,41.8L57.2,41.8L57.2,41.8z M69.5,42c1.7,0,3.1-1.4,3.1-3.1c0-1.7-1.4-3.1-3.1-3.1h-4.2V42L69.5,42
	L69.5,42z M69.5,33c3.3,0,5.9,2.6,5.9,5.9c0,3.3-2.6,5.9-5.9,5.9c0,0,0,0,0,0h-4.2v4.9h-2.8V35.8h-1.7L62,33L69.5,33L69.5,33z
	 M90.4,44.8c0.8-1,1.2-2.2,1.2-3.4c0-3.1-2.5-5.5-5.5-5.5c-0.7,0-1.5,0.1-2.2,0.4L90.4,44.8z M86,46.9c0.7,0,1.5-0.1,2.2-0.4
	l-6.6-8.5c-0.8,1-1.2,2.2-1.2,3.4C80.5,44.4,83,46.9,86,46.9L86,46.9L86,46.9z M86,33c4.6,0,8.3,3.7,8.3,8.3s-3.7,8.3-8.3,8.3
	c-4.6,0-8.3-3.7-8.3-8.3c0-2.2,0.9-4.3,2.4-5.9C81.7,33.9,83.8,33,86,33L86,33z M101.1,42h4.2c1.7,0,3.1-1.4,3.1-3.1
	c0-1.7-1.4-3.1-3.1-3.1h-4.2V42z M98.3,35.8h-1.7l1.2-2.8h7.4c3.3,0,5.9,2.6,5.9,5.9c0,0,0,0,0,0c0,2.4-1.5,4.6-3.8,5.5l7.7,9.8
	l-4.6-1.4l-6.4-8.1h-3v4.9h-2.8L98.3,35.8L98.3,35.8z M126.5,33v2.8h-5.2v13.9h-2.8V35.8h-5.2V33H126.5z"/>
</svg>
