<svg width="25" height="24" viewBox="0 0 25 24" fill="none" xmlns="http://www.w3.org/2000/svg">
<path d="M21.5 6.9375C20.2573 6.93601 19.0658 6.44167 18.1871 5.56292C17.3083 4.68416 16.814 3.49275 16.8125 2.25C16.8125 2.10082 16.7532 1.95774 16.6477 1.85225C16.5423 1.74676 16.3992 1.6875 16.25 1.6875H12.5C12.3508 1.6875 12.2077 1.74676 12.1023 1.85225C11.9968 1.95774 11.9375 2.10082 11.9375 2.25V14.625C11.9373 14.994 11.838 15.3563 11.6501 15.6739C11.4622 15.9915 11.1925 16.2529 10.8692 16.4308C10.5459 16.6087 10.1807 16.6966 9.81187 16.6853C9.443 16.674 9.08392 16.5639 8.77208 16.3666C8.46023 16.1692 8.20705 15.8918 8.03894 15.5633C7.87082 15.2348 7.79393 14.8672 7.81629 14.4988C7.83864 14.1304 7.95943 13.7748 8.16604 13.469C8.37265 13.1632 8.65752 12.9185 8.99094 12.7603C9.08712 12.7147 9.1684 12.6428 9.22532 12.5528C9.28224 12.4629 9.31247 12.3586 9.3125 12.2522V8.25C9.31242 8.16825 9.29451 8.08749 9.26004 8.01336C9.22556 7.93923 9.17534 7.87351 9.11287 7.82077C9.05041 7.76803 8.97719 7.72954 8.89833 7.70798C8.81947 7.68642 8.73686 7.68231 8.65625 7.69594C5.39375 8.27625 2.9375 11.2547 2.9375 14.625C2.9375 16.4649 3.66841 18.2295 4.96945 19.5306C6.27048 20.8316 8.03506 21.5625 9.875 21.5625C11.7149 21.5625 13.4795 20.8316 14.7806 19.5306C16.0816 18.2295 16.8125 16.4649 16.8125 14.625V10.5872C18.2428 11.394 19.8578 11.8162 21.5 11.8125C21.6492 11.8125 21.7923 11.7532 21.8977 11.6477C22.0032 11.5423 22.0625 11.3992 22.0625 11.25V7.5C22.0625 7.35082 22.0032 7.20774 21.8977 7.10225C21.7923 6.99676 21.6492 6.9375 21.5 6.9375ZM20.9375 10.6688C19.366 10.5684 17.8548 10.026 16.5781 9.10406C16.494 9.04362 16.3948 9.0076 16.2914 8.99997C16.1881 8.99234 16.0847 9.01339 15.9926 9.06081C15.9004 9.10823 15.8232 9.18017 15.7694 9.26869C15.7155 9.35722 15.6872 9.45889 15.6875 9.5625V14.625C15.6875 16.1666 15.0751 17.645 13.9851 18.7351C12.895 19.8251 11.4166 20.4375 9.875 20.4375C8.33343 20.4375 6.855 19.8251 5.76494 18.7351C4.67489 17.645 4.0625 16.1666 4.0625 14.625C4.0625 12.0262 5.79406 9.705 8.1875 8.96438V11.9203C7.71677 12.2141 7.33088 12.6256 7.06798 13.1142C6.80509 13.6029 6.6743 14.1517 6.68855 14.7064C6.70281 15.261 6.86161 15.8024 7.14925 16.2769C7.43689 16.7514 7.84341 17.1425 8.32861 17.4117C8.8138 17.6809 9.36086 17.8188 9.91568 17.8117C10.4705 17.8046 11.0139 17.6528 11.492 17.3714C11.9702 17.0899 12.3666 16.6884 12.642 16.2068C12.9175 15.7251 13.0624 15.1799 13.0625 14.625V2.8125H15.7147C15.8466 4.15287 16.4392 5.40602 17.3916 6.35839C18.344 7.31075 19.5971 7.90339 20.9375 8.03531V10.6688Z" fill="black"/>
</svg>
